<svg width="396" height="396" viewBox="0 0 396 396" fill="none" xmlns="http://www.w3.org/2000/svg">
    <circle cx="197.951" cy="197.951" r="140" transform="rotate(46.1396 197.951 197.951)" fill="#1d4d5b"/>
    <circle cx="198.942" cy="197.806" r="127" transform="rotate(46.1396 198.942 197.806)" fill="#225969"/>
    <path fill-rule="evenodd" clip-rule="evenodd"
          d="M295.625 162.114C281.09 115.286 240.333 82.6051 194.222 85.0982C138.576 88.1068 96.2052 141.2 99.5836 203.685C102.61 259.657 141.318 304.179 189.349 310.69C165.187 294.321 148.2 264.668 146.327 230.018C143.378 175.478 178.989 129.211 225.866 126.677C253.478 125.184 278.84 139.197 295.625 162.114ZM279.894 183.094C259.127 173.416 233.135 178.547 216.629 197.263C196.71 219.85 198.149 253.669 219.842 272.8C239.274 289.937 268.367 289.476 288.538 272.96C274.111 276.984 258.038 273.878 246.008 263.269C227.073 246.57 225.326 217.609 242.107 198.581C251.991 187.374 266.098 182.112 279.894 183.094ZM223.719 141.588C255.391 139.876 283.289 160.538 293.141 190.267C281.678 175.745 264.3 166.907 245.335 167.932C213.136 169.673 188.553 199.184 190.427 233.847C191.618 255.869 203.202 274.673 219.749 285.012C186.783 281.005 160.324 252.809 158.401 217.236C156.254 177.523 185.498 143.655 223.719 141.588Z"
          fill="white"/>
    <circle cx="286" cy="233" r="24" fill="#EBE293"/>
</svg>
